<svg version="1.2" xmlns="http://www.w3.org/2000/svg" viewBox="0 0 900 520" width="900" height="520">
	<style>
		tspan { white-space:pre } 
		.s0 { fill: #333333;stroke: #000000;stroke-miterlimit:100;stroke-width: 5 } 
		.s1 { fill: #c0c0c0;stroke: #6d6d6d;stroke-miterlimit:100;stroke-width: 5 } 
		.s2 { fill: none;stroke: #000000;stroke-miterlimit:100;stroke-width: 5 } 
		.s3 { fill: #333333;stroke: #6d6d6d;stroke-miterlimit:100;stroke-width: 5 } 
		.s4 { fill: #c0c0c0 } 
	</style>
	<g id="capa-dpad">
	<path id="MarcoCentral" data-diseño="MarcoCentral" fill-rule="evenodd" class="s0" d="m194 206v60h-60v-60z"/>
	<path id="Centro" data-diseño="Centro" fill-rule="evenodd" class="s1" d="m164.5 253c-9.12 0-16.5-7.38-16.5-16.5 0-9.12 7.38-16.5 16.5-16.5 9.12 0 16.5 7.38 16.5 16.5 0 9.12-7.38 16.5-16.5 16.5z"/>
	
	<path id="MarcoBotonUP" fill-rule="evenodd" class="s2" d="m149 146h30c8.28 0 15 6.72 15 15v45h-60v-45c0-8.28 6.72-15 15-15z"/>
	<path id="DUP" data-diseño="DUP" fill-rule="evenodd" class="s3" d="m150 150h28c6.63 0 12 5.37 12 12v40h-52v-40c0-6.63 5.37-12 12-12z"/>
	<path id="FlechaUp" data-diseño="FlechaUp" fill-rule="evenodd" class="s4" d="m185.57 179.21l-42.57 0.12 21.09-19.33z"/>
	
	<path id="MarcoBotonRight" fill-rule="evenodd" class="s2" d="m254 221v30c0 8.28-6.72 15-15 15h-45v-60h45c8.28 0 15 6.72 15 15z"/>
	<path id="DRIGHT" data-diseño="DRIGHT" fill-rule="evenodd" class="s3" d="m250 222v28c0 6.63-5.37 12-12 12h-40v-52h40c6.63 0 12 5.37 12 12z"/>
	<path id="FlechaRight" data-diseño="FlechaRight" fill-rule="evenodd" class="s4" d="m220.79 257.57l-0.12-42.57 19.33 21.09z"/>
	
	<path id="MarcoBotonDown" fill-rule="evenodd" class="s2" d="m178 326h-30c-8.28 0-15-6.72-15-15v-45h60v45c0 8.28-6.72 15-15 15z"/>
	<path id="DDOWN" data-diseño="DDOWN" fill-rule="evenodd" class="s3" d="m177 322h-28c-6.63 0-12-5.37-12-12v-40h52v40c0 6.63-5.37 12-12 12z"/>
	<path id="FlechaDown" data-diseño="FlechaDown" fill-rule="evenodd" class="s4" d="m141.43 292.79l42.57-0.12-21.09 19.33z"/>
	
	<path id="MarcoBotonLeft" fill-rule="evenodd" class="s2" d="m73 251v-30c0-8.28 6.72-15 15-15h45v60h-45c-8.28 0-15-6.72-15-15z"/>
	<path id="DLEFT" data-diseño="DLEFT" fill-rule="evenodd" class="s3" d="m77 250v-28c0-6.63 5.37-12 12-12h40v52h-40c-6.63 0-12-5.37-12-12z"/>
	<path id="FlechaLeft" data-diseño="FlechaLeft" fill-rule="evenodd" class="s4" d="m106.21 214.43l0.12 42.57-19.33-21.09z"/>
	</g>
</svg>